<svg version="1.1" id="Layer_1" xmlns="http://www.w3.org/2000/svg" xmlns:xlink="http://www.w3.org/1999/xlink" x="0px" y="0px"
	 width="200px" height="263px" viewBox="0 0 200 263" enable-background="new 0 0 200 263" xml:space="preserve">
<g display="none">
	<path display="inline" fill="#302F2F" d="M117,7H10c-2.209,0-4,1.791-4,4v181c0,2.209,1.791,4,4,4h107c2.209,0,4-1.791,4-4V11
		C121,8.791,119.209,7,117,7z M116,174H12V13h104V174z"/>
	<path display="inline" d="M195,144c0-2.209-1.791-4-4-4H10c-2.209,0-4,1.791-4,4v107c0,2.209,1.791,4,4,4h181c2.209,0,4-1.791,4-4
		V144z M28,250V146h161v104H28z"/>
	<path display="inline" fill="none" stroke="#000000" stroke-width="5" stroke-linecap="round" stroke-miterlimit="10" d="M134,68
		c13,0,49,8,49,47"/>

		<polygon display="inline" stroke="#000000" stroke-width="3" stroke-linecap="round" stroke-linejoin="round" stroke-miterlimit="10" points="
		172.241,115.5 192.759,115.5 182.793,128.396 	"/>
</g>
<path fill="#302F2F" d="M122,4.236C122,1.896,120.104,0,117.764,0H4.236C1.896,0,0,1.896,0,4.236v191.527
	C0,198.104,1.896,200,4.236,200h113.527c2.34,0,4.236-1.896,4.236-4.236V4.236z M117,177H6V7h111V177z"/>
<path d="M200,145.236c0-2.34-1.896-4.236-4.236-4.236H4.236C1.896,141,0,142.896,0,145.236v113.527C0,261.104,1.896,263,4.236,263
	h191.527c2.34,0,4.236-1.896,4.236-4.236V145.236z M194,257H23V148h171V257z M135.479,67.757c13.569,0,48.562,8.243,49.217,46.243
	h-8.716c-0.614,0-1.173,0.194-1.436,0.749c-0.264,0.556-0.184,1.139,0.206,1.613l11.175,13.844c0.302,0.369,0.754,0.794,1.229,0.794
	h0.021c0.485,0,0.939-0.489,1.235-0.873l10.555-13.813c0.371-0.48,0.437-1.005,0.17-1.549c-0.268-0.544-0.821-0.766-1.427-0.766
	h-7.719c-0.652-43-39.468-51.539-54.512-51.539c-1.463,0-2.647,1.186-2.647,2.648C132.832,66.571,134.017,67.757,135.479,67.757z"/>
</svg>
